<svg xmlns="http://www.w3.org/2000/svg" width="210" height="210" viewBox="0 0 210 210">
    <defs>
        <style>
            .cls-1,.cls-5,.cls-6{fill:none}.cls-2{clip-path:url(#clip-path)}.cls-3{fill:#34a853}.cls-4{fill:#d9eade}.cls-5{stroke:#34a853}.cls-6{stroke:#e0f1e5;stroke-width:3px}.cls-7{fill:#fff}.cls-8{stroke:none}.cls-9{filter:url(#Rectangle_2701)}
        </style>
        <clipPath id="clip-path">
            <path d="M0 0h210v210H0z" class="cls-1"/>
        </clipPath>
        <filter id="Rectangle_2701" width="210" height="210" x="0" y="0" filterUnits="userSpaceOnUse">
            <feOffset dy="1"/>
            <feGaussianBlur result="blur" stdDeviation="15"/>
            <feFlood flood-opacity=".102"/>
            <feComposite in2="blur" operator="in"/>
            <feComposite in="SourceGraphic"/>
        </filter>
    </defs>
    <g id="Component_115_1" class="cls-2" data-name="Component 115 – 1">
        <g id="Group_5678" data-name="Group 5678" transform="translate(-411 -1342)">
            <circle id="Ellipse_334" cx="4.5" cy="4.5" r="4.5" class="cls-3" data-name="Ellipse 334" transform="translate(419 1425)"/>
            <circle id="Ellipse_338" cx="4.5" cy="4.5" r="4.5" class="cls-4" data-name="Ellipse 338" transform="translate(483 1363)"/>
            <g id="Ellipse_337" class="cls-5" data-name="Ellipse 337" transform="translate(451 1480)">
                <circle cx="3" cy="3" r="3" class="cls-8"/>
                <circle cx="3" cy="3" r="2.5" class="cls-1"/>
            </g>
            <g id="Ellipse_336" class="cls-6" data-name="Ellipse 336" transform="translate(571 1477)">
                <circle cx="7" cy="7" r="7" class="cls-8"/>
                <circle cx="7" cy="7" r="5.5" class="cls-1"/>
            </g>
            <circle id="Ellipse_335" cx="1" cy="1" r="1" class="cls-3" data-name="Ellipse 335" transform="translate(524 1367)"/>
        </g>
        <g class="cls-9">
            <rect id="Rectangle_2701-2" width="120" height="120" class="cls-7" data-name="Rectangle 2701" rx="15" transform="translate(45 44)"/>
        </g>
        <path id="search" d="M17.592 31.665h5.981v3.518h-5.981zm-6.6-.44a2.2 2.2 0 1 0 2.2 2.2 2.2 2.2 0 0 0-2.197-2.199zM35.36 20.494H17.592v3.518H35.36zm-24.365-.44a2.2 2.2 0 1 0 2.2 2.2 2.2 2.2 0 0 0-2.2-2.199zM35.36 9.939H17.592v3.518H35.36zM10.995 9.5a2.2 2.2 0 1 0 2.2 2.2 2.2 2.2 0 0 0-2.2-2.2zM3.518 39.758V5.278a1.761 1.761 0 0 1 1.76-1.76h34.48a1.761 1.761 0 0 1 1.759 1.759v19.88h3.518V5.278A5.283 5.283 0 0 0 39.758 0H5.278A5.284 5.284 0 0 0 0 5.278v34.48a5.283 5.283 0 0 0 5.278 5.277H25.6v-3.518H5.278a1.761 1.761 0 0 1-1.76-1.759zm39.041 5.29l-3.5-3.5a7.925 7.925 0 1 1 2.541-2.432l3.444 3.444zm-7.552-5.906a4.4 4.4 0 1 0-4.4-4.4 4.4 4.4 0 0 0 4.401 4.4zm0 0" class="cls-3" transform="translate(82 81)"/>
    </g>
</svg>
