<svg xmlns="http://www.w3.org/2000/svg" width="122.309" height="30" viewBox="0 0 122.309 30">
    <defs>
        <style>
            .cls-1{fill:none}.cls-2{clip-path:url(#clip-path)}.cls-3{fill:#fff}.cls-4{fill:#f4b400}.cls-5{fill:#f5a105}
        </style>
        <clipPath id="clip-path">
            <path d="M0 0h122.308v30H0z" class="cls-1"/>
        </clipPath>
    </defs>
    <g id="Component_258_1" class="cls-2" data-name="Component 258 – 1">
        <path id="Path_3425" d="M830.013 469.674a5.748 5.748 0 0 1-1.924 2.025 5.331 5.331 0 0 1-2.946.764 5.651 5.651 0 0 1-2.166-.416 5.17 5.17 0 0 1-2.859-2.88 5.712 5.712 0 0 1-.4-2.191 5.614 5.614 0 0 1 .405-2.1 5.313 5.313 0 0 1 2.807-2.912 5.162 5.162 0 0 1 2.149-.432 5.591 5.591 0 0 1 2.2.417 4.488 4.488 0 0 1 1.609 1.137 4.872 4.872 0 0 1 .978 1.711 6.594 6.594 0 0 1 .328 2.138v.251a1.409 1.409 0 0 0-.022.23 1.171 1.171 0 0 0-.022.23l-7.729-.028a2.881 2.881 0 0 0 .342 1.08 2.607 2.607 0 0 0 .647.756 2.517 2.517 0 0 0 .847.443 3.3 3.3 0 0 0 .942.14 2.674 2.674 0 0 0 1.562-.424 3.134 3.134 0 0 0 .978-1.075zm-2.478-3.989a1.777 1.777 0 0 0-.176-.608 2.14 2.14 0 0 0-.458-.63 2.419 2.419 0 0 0-.752-.485 2.789 2.789 0 0 0-1.078-.192 2.514 2.514 0 0 0-1.552.5 2.652 2.652 0 0 0-.948 1.4z" class="cls-3" data-name="Path 3425" transform="translate(-779.371 -451.99)"/>
        <path id="Path_3426" d="M907.486 472.055l5.257-5.637-5.069-.018.008-2.346 8.442.03-.008 2.262-5.257 5.637 5.321.019-.009 2.346-8.693-.031z" class="cls-3" data-name="Path 3426" transform="translate(-854.673 -454.157)"/>
        <path id="Path_3427" d="M983.221 430.978l2.744.01-.016 4.5-.173 1.466h.168a3.116 3.116 0 0 1 1.177-1.106 3.877 3.877 0 0 1 1.971-.454 4.449 4.449 0 0 1 1.873.415 5.015 5.015 0 0 1 1.567 1.137 5.38 5.38 0 0 1 1.073 1.732 6.277 6.277 0 0 1-.016 4.4 5.376 5.376 0 0 1-1.085 1.724 5.008 5.008 0 0 1-1.575 1.125 4.443 4.443 0 0 1-1.876.4 3.877 3.877 0 0 1-1.967-.468 3.112 3.112 0 0 1-1.169-1.114h-.168v1.236l-2.576-.009zM988.5 443.8a2.623 2.623 0 0 0 1.038-.206 2.733 2.733 0 0 0 .872-.584 2.867 2.867 0 0 0 .611-.919 3.318 3.318 0 0 0 .008-2.43 2.861 2.861 0 0 0-.6-.924 2.728 2.728 0 0 0-.867-.59 2.622 2.622 0 0 0-1.036-.213 2.742 2.742 0 0 0-1.038.2 2.59 2.59 0 0 0-.871.573 2.863 2.863 0 0 0-.611.92 3.43 3.43 0 0 0-.009 2.472 2.864 2.864 0 0 0 .6.924 2.591 2.591 0 0 0 .867.579 2.736 2.736 0 0 0 1.036.198z" class="cls-3" data-name="Path 3427" transform="translate(-919.617 -425.777)"/>
        <path id="Path_3428" d="M1073.121 433.672a1.769 1.769 0 0 1-1.245-.518 1.77 1.77 0 0 1-.375-.556 1.822 1.822 0 0 1 .005-1.382 1.774 1.774 0 0 1 .379-.554 1.783 1.783 0 0 1 2.5.009 1.745 1.745 0 0 1-.009 2.493 1.733 1.733 0 0 1-1.255.508zm-1.4 11.641l.037-10.264 2.744.01-.037 10.264z" class="cls-3" data-name="Path 3428" transform="translate(-995.296 -425.068)"/>
        <path id="Path_3429" d="M1107.331 472.771l5.257-5.637-5.069-.018.009-2.346 8.441.03-.008 2.262-5.261 5.638 5.321.019-.008 2.346-8.693-.031z" class="cls-3" data-name="Path 3429" transform="translate(-1026.146 -454.771)"/>
        <path id="Path_3430" d="M1187.735 456.515a2.929 2.929 0 0 1-2.082-.783 2.873 2.873 0 0 1-.84-2.161l.021-5.74-1.8-.007.006-1.759 1.8.006.012-3.142 1.927.007-.011 3.142 2.514.009-.006 1.76-2.514-.009-.018 5.111a1.873 1.873 0 0 0 .393 1.394 1.294 1.294 0 0 0 .9.37 1.93 1.93 0 0 0 .451-.051 2.316 2.316 0 0 0 .409-.135l.6 1.72a5.18 5.18 0 0 1-1.762.268z" class="cls-4" data-name="Path 3430" transform="translate(-1091.108 -436.033)"/>
        <path id="Path_3431" d="M1243.15 473.828l-1.927-.007.037-10.264 1.843.007-.006 1.676h.084a2.784 2.784 0 0 1 1.21-1.389 3.345 3.345 0 0 1 1.793-.57 3.61 3.61 0 0 1 1.423.257l-.593 1.862a3.2 3.2 0 0 0-1.131-.151 2.494 2.494 0 0 0-1.9.873 2.943 2.943 0 0 0-.814 2.05z" class="cls-4" data-name="Path 3431" transform="translate(-1141.037 -453.494)"/>
        <path id="Path_3432" d="M1296.514 432.376a1.359 1.359 0 1 1-.395-.965 1.311 1.311 0 0 1 .395.965zm-.411 3.539l-.037 10.264-1.927-.007.037-10.264z" class="cls-4" data-name="Path 3432" transform="translate(-1186.143 -425.805)"/>
        <path id="Path_3433" d="M1329.653 474.335a4.426 4.426 0 0 1-2.062-.489 3.608 3.608 0 0 1-1.43-1.283h-.084l.078 1.425-.016 4.525-1.927-.007.053-14.789 1.843.007v1.425h.083a3.614 3.614 0 0 1 1.439-1.273 4.555 4.555 0 0 1 5.495 1.13 5.917 5.917 0 0 1-.028 7.751 4.408 4.408 0 0 1-3.444 1.578zm-.308-1.761a3 3 0 0 0 2.329-1.039 3.779 3.779 0 0 0 .953-2.657 3.827 3.827 0 0 0-.933-2.664 3.128 3.128 0 0 0-4.671-.017 4.331 4.331 0 0 0-.019 5.341 3.054 3.054 0 0 0 2.341 1.036z" class="cls-4" data-name="Path 3433" transform="translate(-1212.246 -453.597)"/>
        <g id="Group_5341" data-name="Group 5341">
            <path id="Path_3434" d="M555.649 538.612l.148.126c-.05-.038-.097-.084-.148-.126z" class="cls-1" data-name="Path 3434" transform="translate(-552.792 -518.13)"/>
            <path id="Path_3435" d="M544.677 525.117a8.588 8.588 0 0 1-1.8-2.22 8.036 8.036 0 0 0 1.8 2.22z" class="cls-1" data-name="Path 3435" transform="translate(-541.833 -504.646)"/>
            <path id="Path_3436" d="M690.807 534.544l.107-.12.156-.175.276-1.841.041-.272-.675.977z" class="cls-1" data-name="Path 3436" transform="translate(-668.681 -512.574)"/>
            <path id="Path_3437" d="M564.685 404.817a12.294 12.294 0 0 0-.067-.205q-.1-.313-.222-.621c-.026-.068-.052-.137-.079-.2a15 15 0 0 0-28.53 2.069 9.946 9.946 0 0 0 .783 6.734 8.585 8.585 0 0 0 1.8 2.22l.012.01.148.126c.212.175.437.346.678.51a10.845 10.845 0 0 0 5.263 1.726h.025a17.544 17.544 0 0 0 2.111.045 15.929 15.929 0 0 0 7.861-1.9 9.261 9.261 0 0 0 1.31-.919l.042-.036a5.236 5.236 0 0 0 .963-1.031l-.345-.034-3.06-.311-.4-.04.02-.022.068-.074.236-.253.446-.024 3.6-.193.31-.017.1-.005.185-.177c.077-.071.17-.161.264-.253.131-.127.265-.257.366-.347.028-.025.054-.047.076-.064l.042-.032.027-.021.034-.024.046-.032.024-.016.072-.046a1.793 1.793 0 0 1 .253-.132.7.7 0 0 1 .15-.043h.129l.018-.005c.013-.006.1-.044.188-.073a.3.3 0 0 1 .2-.015l.011.007.008.005a.069.069 0 0 1 .015.02.084.084 0 0 1 0 .018.69.69 0 0 1-.076.29l-.011.024-.03.063-.015.03-.036.066-.017.029-.044.07-.113.151-.3.384-.362.455-.159.189c-.41.486-.84.958-1.3 1.413q-.428.428-.875.828a21.885 21.885 0 0 1-17.46 4.066 15 15 0 0 0 25.61-14.381zm-6.493 9.356l-.277 1.841-.156.175-.107.12-.095-1.431.675-.977z" class="cls-4" data-name="Path 3437" transform="translate(-535.526 -394.339)"/>
            <path id="Path_3438" d="M555.563 538.538l.012.01z" class="cls-5" data-name="Path 3438" transform="translate(-552.719 -518.067)"/>
            <path id="Path_3439" d="M557.371 540.011q-.361-.247-.678-.51.317.265.678.51z" class="cls-5" data-name="Path 3439" transform="translate(-553.688 -518.893)"/>
        </g>
    </g>
</svg>
