<svg xmlns="http://www.w3.org/2000/svg" width="217.264" height="219.473" viewBox="0 0 217.264 219.473">
    <defs>
        <style>
            .cls-1{fill:#ccc}.cls-2{fill:#f4b400;stroke:#000;stroke-miterlimit:10}
        </style>
    </defs>
    <g id="Component_422_2" data-name="Component 422 – 2" transform="translate(-.001)">
        <g id="Group_10497" data-name="Group 10497" transform="translate(118.127 129.608)">
            <path id="Path_4071" d="M583.19 527.721l-64.469 5.184-.221-5.405z" class="cls-1" data-name="Path 4071" transform="translate(-518.5 -527.5)"/>
        </g>
        <g id="Group_10498" data-name="Group 10498" transform="translate(118.127 129.608)">
            <path id="Path_4072" d="M583.856 617.144H518.5V527.5h65.356zm-64.914-.442h64.473v-88.76h-64.473z" data-name="Path 4072" transform="translate(-518.5 -527.5)"/>
        </g>
        <g id="Group_10499" data-name="Group 10499" transform="translate(118.127 129.608)">
            <path id="Path_4073" d="M583.856 539.2H518.5v-11.7h65.356zm-64.914-.442h64.473v-10.816h-64.473z" data-name="Path 4073" transform="translate(-518.5 -527.5)"/>
        </g>
        <g id="Group_10500" data-name="Group 10500" transform="translate(113.49 126.738)">
            <path id="Path_4074" d="M582.188 524.091H508V521h74.188zm-73.746-.442h73.3v-2.208h-73.3z" data-name="Path 4074" transform="translate(-508 -521)"/>
        </g>
        <g id="Group_10501" data-name="Group 10501" transform="translate(118.347 122.763)">
            <path id="Path_4075" d="M522.533 515.091H519V512h3.533zm-3.091-.441h2.649v-2.208h-2.649z" data-name="Path 4075" transform="translate(-519 -512)"/>
        </g>
        <g id="Group_10502" data-name="Group 10502" transform="translate(122.763 122.763)">
            <path id="Path_4076" d="M532.533 515.091H529V512h3.533zm-3.091-.441h2.649v-2.208h-2.649z" data-name="Path 4076" transform="translate(-529 -512)"/>
        </g>
        <g id="Group_10503" data-name="Group 10503" transform="translate(126.738 122.763)">
            <path id="Path_4077" d="M541.533 515.091H538V512h3.533zm-3.091-.441h2.649v-2.208h-2.649z" data-name="Path 4077" transform="translate(-538 -512)"/>
        </g>
        <g id="Group_10504" data-name="Group 10504" transform="translate(134.686 122.763)">
            <path id="Path_4078" d="M559.533 515.091H556V512h3.533zm-3.091-.441h2.65v-2.208h-2.65z" data-name="Path 4078" transform="translate(-556 -512)"/>
        </g>
        <g id="Group_10505" data-name="Group 10505" transform="translate(117.243 123.867)">
            <path id="Rectangle_3998" d="M0 0h22.301v2.87H0z" data-name="Rectangle 3998"/>
        </g>
        <g id="Group_10506" data-name="Group 10506" transform="translate(157.649 126.075)">
            <path id="Rectangle_3999" d="M0 0h14.573v.662H0z" data-name="Rectangle 3999"/>
        </g>
        <g id="Group_10507" data-name="Group 10507" transform="translate(0 218.81)">
            <path id="Rectangle_4000" d="M0 0h205.342v.662H0z" data-name="Rectangle 4000"/>
        </g>
        <g id="Group_10508" data-name="Group 10508" transform="translate(145.678 61.674)">
            <path id="Path_4079" d="M580.89 426.75l1.461-5.656.428.11-1.231 4.764c5.08-2.347 6.907-4.659 7.1-4.921L600.76 383.3a12.067 12.067 0 0 0-2.646-9.338l.325-.3a12.544 12.544 0 0 1 2.749 9.739l-12.138 37.847-.018.027c-.075.109-1.9 2.687-7.723 5.288z" data-name="Path 4079" transform="translate(-580.89 -373.662)"/>
        </g>
        <g id="Group_10509" data-name="Group 10509" transform="translate(157.87 88.917)">
            <path id="Path_4080" d="M622.488 473.175H608.5v-.442h13.391l-11.391-37.25.423-.129z" data-name="Path 4080" transform="translate(-608.5 -435.354)"/>
        </g>
        <g id="Group_10510" data-name="Group 10510" transform="translate(27.628 69.345)">
            <path id="Path_4081" d="M337.594 487.362c-9.567 0-16.36-2.372-20.245-7.081-4.223-5.119-4.928-13.1-2.038-23.084 4.228-14.605 12.982-27 24.064-42.7q2.489-3.524 5.112-7.269c13.188-18.9 23.229-16.11 23.65-15.983.258.04 7 1.363 5.676 21.643-1.054 16.167-.111 18.1.112 18.329l.022-.023h.1l24.938 1.336v6.551l-.151.05a160.007 160.007 0 0 1-16.641 4.368c-11.992 2.427-20.416 2.439-25.04.034-11.085-5.764-3.714-26.121-3.638-26.326l.414.153c-.074.2-7.313 20.2 3.427 25.782 10.438 5.426 38.852-3.621 41.188-4.38v-5.813l-24.451-1.31a.377.377 0 0 1-.318 0c-1.306-.592-.94-10.542-.4-18.786 1.292-19.8-5.27-21.174-5.336-21.185-.128-.036-10.2-2.8-23.187 15.806q-2.618 3.754-5.113 7.271c-11.059 15.661-19.794 28.03-24 42.564-2.847 9.836-2.171 17.679 1.955 22.68 4.581 5.553 13.354 7.783 26.075 6.626.2-.026 20.911-2.7 36.608-7.5l.129.423c-15.733 4.807-36.481 7.488-36.689 7.515q-3.286.309-6.223.309z" data-name="Path 4081" transform="translate(-313.563 -391.033)"/>
        </g>
        <g id="Group_10511" data-name="Group 10511" transform="translate(32.926 125.91)">
            <path id="Path_4082" d="M366.291 609.156h-9.719l20.337-55.7.415.152-20.12 55.1h8.828c1.632-2.918 33.132-59.285 35.69-66.533a8.421 8.421 0 0 0-1.191-8.343c-2.912-3.637-10.62-7.464-30.811-5.055-15.328 1.831-26.51-.8-33.192-3.324a38.191 38.191 0 0 1-10.966-6l.293-.33c.143.128 14.678 12.7 43.813 9.219 20.392-2.435 28.225 1.493 31.207 5.217a8.848 8.848 0 0 1 1.264 8.765c-2.626 7.439-35.453 66.124-35.785 66.715z" data-name="Path 4082" transform="translate(-325.562 -519.126)"/>
        </g>
        <g id="Group_10512" data-name="Group 10512" transform="translate(68.963 123.131)">
            <path id="Rectangle_4001" d="M0 0h15.134v.441H0z" data-name="Rectangle 4001" transform="rotate(-56.962 11.693 6.343)"/>
        </g>
        <g id="Group_10513" data-name="Group 10513" transform="translate(81.385 67.498)">
            <path id="Path_4083" d="M443.284 408.329l-1.764-4.066.4-.176 1.462 3.369 3.663-4.885-7.79-15.147-3.784 1.682-.179-.4 4.165-1.851 8.108 15.765z" data-name="Path 4083" transform="translate(-435.297 -386.851)"/>
        </g>
        <g id="Group_10514" data-name="Group 10514" transform="translate(86.971 85.438)">
            <path id="Path_4084" d="M448.336 445.927l-.389-.209c3.856-7.15 4.434-18.132 4.439-18.242l.442.021c-.006.112-.589 11.193-4.492 18.43z" data-name="Path 4084" transform="translate(-447.947 -427.476)"/>
        </g>
        <g id="Group_10515" data-name="Group 10515" transform="translate(97.714 58.422)">
            <path id="Path_4085" d="M479 380.3c-1.346 0-2.538-.024-3.541-.073q-.317-.015-.593-.032a8.727 8.727 0 0 1-2.589-.36l.2-.395a9.46 9.46 0 0 0 2.419.314c.182.011.378.022.586.032 1 .048 2.18.072 3.52.072a3.372 3.372 0 0 0 2.855-1.228c1.632-2.147.476-6.4.464-6.441l-.043-.154 1.2-.8c-1.315-1.171-2.848-4.6-2.917-4.753l.4-.179c.017.039 1.755 3.926 3.012 4.763l.276.184-1.469.98c.2.82 1.018 4.568-.579 6.67a3.791 3.791 0 0 1-3.201 1.4z" data-name="Path 4085" transform="translate(-472.276 -366.297)"/>
        </g>
        <g id="Group_10516" data-name="Group 10516" transform="translate(92.735 72.05)">
            <path id="Path_4086" d="M461.442 407.466H461l.018-.529c1.325-3.091 7.3-9.507 7.548-9.779l.323.3c-.061.066-6.116 6.572-7.448 9.61z" data-name="Path 4086" transform="translate(-461 -397.159)"/>
        </g>
        <g id="Group_10517" data-name="Group 10517" transform="translate(85.791 67.16)">
            <path id="Path_4087" d="M445.474 388.232l-.2-.395a34.355 34.355 0 0 0 3.068-1.753l.245.367a34.822 34.822 0 0 1-3.113 1.781z" data-name="Path 4087" transform="translate(-445.276 -386.084)"/>
        </g>
        <g id="Group_10518" data-name="Group 10518" transform="translate(92.758 63.44)">
            <path id="Path_4088" d="M465.191 382.666c-2.2-.338-3.539-1.042-3.981-2.093a2.472 2.472 0 0 1 .3-2.228c1.544-1.548 3.781-.115 4.752.855l-.312.313c-.025-.025-2.515-2.472-4.1-.884a2.068 2.068 0 0 0-.23 1.776c.375.885 1.634 1.516 3.64 1.825z" data-name="Path 4088" transform="translate(-461.053 -377.662)"/>
        </g>
        <g id="Group_10519" data-name="Group 10519" transform="translate(94.609 64.946)">
            <path id="Rectangle_4002" d="M0 0h.442v2.575H0z" data-name="Rectangle 4002" transform="rotate(-59.05 .335 .19)"/>
        </g>
        <g id="Group_10520" data-name="Group 10520" transform="translate(87.074 51.62)">
            <path id="Path_4089" d="M455.387 352.928s3.533-4.858 8.39.442c0 0 .442.883 2.208.442s3.091-.883 3.091 0 1.766 5.3-11.04 6.182v3.533s-2.65-1.325-3.533 0-.966 3.18 2.608 3.8c0 0-.842 1.943-2.167 1.943s-4.858.442-6.182-5.3-.882-11.483 6.625-11.042z" data-name="Path 4089" transform="translate(-448.181 -350.895)"/>
        </g>
        <g id="Group_10521" data-name="Group 10521" transform="translate(108.497 110.856)">
            <path id="Rectangle_4003" d="M0 0h7.655v.442H0z" data-name="Rectangle 4003" transform="rotate(-85.408 4.134 3.815)"/>
        </g>
        <g id="Group_10522" data-name="Group 10522" transform="translate(112.735 111.552)">
            <path id="Path_4090" d="M518.332 498.494l-3.6-6.694c-.768.775-3.526 2.97-8.437.7l.185-.4c5.5 2.539 8.017-.677 8.122-.816l.207-.274 2.594 4.815-.734-4.039 2.947 2.214-4.52-6.78-8.717-.169.009-.442 8.947.174 6.078 9.117-4.113-3.085z" data-name="Path 4090" transform="translate(-506.291 -486.612)"/>
        </g>
        <g id="Group_10523" data-name="Group 10523" transform="translate(23.696 99.306)">
            <path id="Path_4091" d="M334.71 529.042c-12.232 0-27.152-1.722-29.013-12.887-2.664-15.985-.408-29.318 9.285-54.872.03-.08.756-1.979 2.081-2.344a1.971 1.971 0 0 1 1.8.482c.1.094 1.883 1.949-.392 5.589-2.12 3.392-9.21 30.773-9.446 42.056a15.4 15.4 0 0 0 4.2 11.525c4.88 5.056 13.41 7.121 25.358 6.14 4.276-.731 18.324-2.983 18.779-1.158a3.05 3.05 0 0 1-.506 2.746c-1.236 1.583-4.258 2.386-8.982 2.386-1.2 0-2.747.059-4.54.128-2.526.096-5.488.209-8.624.209zm-17.21-69.72a1.22 1.22 0 0 0-.324.044c-1.108.3-1.779 2.056-1.786 2.074-9.661 25.47-11.911 38.747-9.262 54.644 2.274 13.644 24.979 12.776 37.177 12.308 1.8-.068 3.35-.128 4.557-.128 4.581 0 7.486-.745 8.634-2.216a2.63 2.63 0 0 0 .426-2.367c-.242-.968-9.686.019-18.3 1.489-12.107 1-20.761-1.116-25.736-6.277a15.852 15.852 0 0 1-4.313-11.856c.147-7.067 2.85-19.145 4-24.009 2.1-8.822 4.411-16.5 5.507-18.25 2.091-3.345.489-5.01.473-5.026a1.721 1.721 0 0 0-1.053-.43z" data-name="Path 4091" transform="translate(-304.66 -458.879)"/>
        </g>
        <g id="Group_10524" data-name="Group 10524" transform="translate(15.001 169.022)">
            <path id="Path_4092" d="M285.389 666.612l-.418-.14c.031-.094 3.28-9.33 15.094-7.682l13.31-42.036.421.134-13.423 42.392-.186-.028c-6.063-.9-9.759 1.147-11.793 3.021a11.765 11.765 0 0 0-3.005 4.339z" data-name="Path 4092" transform="translate(-284.971 -616.753)"/>
        </g>
        <g id="Group_10525" data-name="Group 10525" transform="translate(30.225 211.084)">
            <path id="Path_4093" d="M334.26 719.828c-.031-.061-3.17-6.092-14.815-7.386l.049-.439c11.906 1.323 15.035 7.372 15.162 7.629z" data-name="Path 4093" transform="translate(-319.445 -712.003)"/>
        </g>
        <g id="Group_10526" data-name="Group 10526" transform="translate(63.001 215.498)">
            <path id="Path_4094" d="M411.352 725.533h-17.686l1.088-3.533h11.2c.142 0 3.489.018 4.858 1.544a2.219 2.219 0 0 1 .559 1.792zm-17.088-.441h16.684a1.74 1.74 0 0 0-.462-1.252c-1.236-1.38-4.5-1.4-4.529-1.4H395.08z" data-name="Path 4094" transform="translate(-393.666 -722)"/>
        </g>
        <g id="Group_10529" data-name="Group 10529" transform="translate(173.988)">
            <g id="Group_10527" data-name="Group 10527">
                <path id="Path_4095" d="M666.638 277.276a21.638 21.638 0 1 1 21.638-21.638 21.662 21.662 0 0 1-21.638 21.638zm0-42.835a21.2 21.2 0 1 0 21.2 21.2 21.221 21.221 0 0 0-21.2-21.199z" data-name="Path 4095" transform="translate(-645 -234)"/>
            </g>
            <g id="Group_10528" data-name="Group 10528" transform="translate(19.43 12.144)">
                <path id="Path_4096" d="M700.7 273.644H689V261.5h.442v11.7H700.7z" data-name="Path 4096" transform="translate(-689 -261.5)"/>
            </g>
        </g>
        <path id="Path_4097" d="M394.537 533.618c-2.982-3.724-10.816-7.652-31.207-5.217-27.278 3.256-41.739-7.541-43.59-9.036l-.1-.084c.023-.052.048-.1.072-.155h-.486l-.116.259a75.111 75.111 0 0 0-3.432 9.4c-2.89 9.983-2.185 17.965 2.039 23.084 3.885 4.709 10.679 7.081 20.245 7.081q2.935 0 6.218-.3c.163-.021 13.086-1.691 26.257-4.751l-20.2 55.316h9.719l.063-.113c.331-.592 33.159-59.276 35.785-66.715a11.036 11.036 0 0 0 .454-1.706v-3.369a8.422 8.422 0 0 0-1.721-3.694z" data-name="Path 4097" transform="translate(-286.138 -393.216)"/>
        <g id="Group_10530" data-name="Group 10530" transform="translate(143.739 61.602)">
            <path id="Path_4098" d="M592.4 373.5l-15.9 52.55 3.091.883L595.93 373.5z" class="cls-2" data-name="Path 4098" transform="translate(-576.5 -373.5)"/>
        </g>
    </g>
</svg>
