<svg xmlns="http://www.w3.org/2000/svg" width="177.526" height="153.644" viewBox="0 0 177.526 153.644">
    <defs>
        <style>
            .cls-1{fill:#38ba72}.cls-2{fill:#e8af2e}.cls-3{fill:#5d66d3}.cls-4{fill:#d67086}.cls-5{fill:#c48a18}.cls-6{fill:#fff}.cls-7{fill:#f0f1f1}.cls-8{fill:#d0d2d3}.cls-9{fill:#bbbdbf}.cls-10{fill:#d39b2a}
        </style>
    </defs>
    <g id="Symbol_371_1" data-name="Symbol 371 – 1" transform="translate(3095.227 -7855.367)">
        <g id="Group_978" data-name="Group 978">
            <g id="Group_969" data-name="Group 969" transform="translate(1413 -1872)">
                <path id="Path_2434" d="M500.093 260.6l-4.017-.215c.012-.232.346-5.716 3.939-8.865a8.951 8.951 0 0 1 6.861-2.116c2.06.161 3.569-.163 4.249-.912a2.671 2.671 0 0 0 .5-2.03l3.946-.787a6.645 6.645 0 0 1-1.413 5.46c-1.575 1.785-4.128 2.552-7.6 2.28a5.019 5.019 0 0 0-3.894 1.131c-2.292 2.013-2.564 6.015-2.571 6.054z" class="cls-1" data-name="Path 2434" transform="translate(-4846.382 9543.559)"/>
                <path id="Path_2435" d="M419.653 217.2l1.9-3.08c.178.109 4.365 2.729 5.307 6.921a8.047 8.047 0 0 1-1.276 6.326c-1.013 1.558-1.4 2.888-1.106 3.747a2.4 2.4 0 0 0 1.387 1.269l-1.074 3.454a5.968 5.968 0 0 1-3.7-3.462c-.733-2.01-.241-4.356 1.464-6.98a4.51 4.51 0 0 0 .78-3.56c-.61-2.673-3.651-4.612-3.682-4.635z" class="cls-2" data-name="Path 2435" transform="translate(-4879.797 9513.242)"/>
                <path id="Rectangle_1759" d="M0 0h12.449v4.438H0z" class="cls-3" data-name="Rectangle 1759" transform="rotate(-57.277 6729.14 8897.74)"/>
                <path id="Path_2438" d="M587.4 292.572l-6.52-12.951 5-2.413 6.52 12.951z" class="cls-4" data-name="Path 2438" transform="translate(-4941.382 9546.313)"/>
                <path id="Rectangle_1761" d="M0 0h4.438v12.449H0z" class="cls-4" data-name="Rectangle 1761" transform="rotate(-52.823 7587.871 9426.66)"/>
                <path id="Path_2441" d="M359.074 231.083c-.092-.163-2.251-4.039-.473-7.77 1.326-2.78 4.354-4.581 9-5.351 1.93-.319 3.193-.856 3.653-1.553.543-.82.171-2.355-.223-3.979-.68-2.8-1.707-7.04 2.84-9.486 2.6-1.4 6.75-2.145 11.728 2.26a25.228 25.228 0 0 1 4.5 5.4l-3.241 1.921c-.055-.093-5.606-9.273-11.2-6.263-1.821.98-1.719 2.16-.962 5.281.54 2.229 1.153 4.755-.3 6.946-1.084 1.638-3.1 2.682-6.18 3.192-3.3.547-5.448 1.666-6.208 3.237-.942 1.944.331 4.293.344 4.316z" class="cls-1" data-name="Path 2441" transform="translate(-4734.382 9539.265)"/>
                <g id="Group_957" data-name="Group 957" transform="translate(-470 6)">
                    <g id="Group_953" data-name="Group 953" transform="translate(-3714.96 9553.453)">
                        <path id="Path_2426" d="M-184.971 240.51l-51.379-43.191c-3.041-1.144-3.041-1.144-6.02 0l-51.5 43.189h-.014l-.155 60.36 109.136 2.869v-63.169" class="cls-5" data-name="Path 2426"/>
                        <path id="Path_2427" d="M-184.971 240.51l.066.058v-.058z" class="cls-6" data-name="Path 2427"/>
                    </g>
                    <path id="Path_2428" d="M-283.5 189.547v105.578h88.222v-88.243l-19.38-17.335z" class="cls-7" data-name="Path 2428" transform="translate(-3714.96 9565.885)"/>
                    <path id="Path_2429" d="M-195.278 206.935l-19.38-17.387v17.387z" class="cls-8" data-name="Path 2429" transform="translate(-3714.96 9565.885)"/>
                    <path id="Rectangle_1757" d="M0 0h61.459v5.35H0z" class="cls-9" data-name="Rectangle 1757" transform="translate(-3984.419 9840.512)"/>
                    <g id="Group_956" data-name="Group 956" transform="translate(-3714.96 9553.453)">
                        <path id="Path_2430" d="M-184.9 321.418v-80.85l-43.558 41.1z" class="cls-2" data-name="Path 2430"/>
                        <path id="Path_2431" d="M-293.875 240.51h-.165v80.908l43.737-39.8z" class="cls-2" data-name="Path 2431"/>
                    </g>
                    <path id="Path_2432" d="M-239.475 270.118l-54.483 51.439h109.135" class="cls-10" data-name="Path 2432" transform="translate(-3714.96 9553.453)"/>
                </g>
                <path id="Path_2437" d="M360.056 266.383l3.144 1.844c-.106.181-2.654 4.457-6.858 5.5a8.109 8.109 0 0 1-6.4-1.148c-1.592-.987-2.941-1.353-3.8-1.032a2.42 2.42 0 0 0-1.248 1.425l-3.5-1.007a6.017 6.017 0 0 1 3.408-3.808c2.009-.782 4.384-.338 7.064 1.323a4.543 4.543 0 0 0 3.6.708c2.686-.666 4.572-3.773 4.59-3.805z" class="cls-3" data-name="Path 2437" transform="rotate(-30 15762.323 13856.04)"/>
                <path id="Rectangle_1764" d="M0 0h12.449v4.438H0z" class="cls-2" data-name="Rectangle 1764" transform="rotate(-3.995 138038.04 69053.108)"/>
                <path id="Path_2440" d="M578.077 224.485l-4.086-2.074c1.13-2.246 1.717-5.1 1.182-5.75-.159-.194-1.142-.54-3.751.177-1.836.5-4.476.985-6.2-.658-1.971-1.872-1.3-4.886-.534-8.374.972-4.4 2.181-9.883-1.28-13.761a8.2 8.2 0 0 0-6.077-3.139c-4.835-.083-9.254 4.475-9.3 4.522l-3.324-3.155c.234-.248 5.807-6.05 12.671-5.95a12.684 12.684 0 0 1 9.447 4.671c5.023 5.628 3.406 12.954 2.335 17.8a23.528 23.528 0 0 0-.667 3.94 7.633 7.633 0 0 0 1.717-.315c4.019-1.1 6.886-.652 8.516 1.345 2.811 3.448-.048 9.536-.649 10.721z" class="cls-1" data-name="Path 2440" transform="translate(-5050.523 9633.431)"/>
            </g>
        </g>
    </g>
</svg>
